# xmcd
#
# Track frame offsets:
#	182
#	12922
#	24812
#	42092
#	60110
#	75980
#	90377
#	114385
#	127745
#	146800
#	161270
#	178155
#	192317
#	206347
#
# Disc length: 2968 seconds
# Revision: 2
# Processed by: cddbd v1.5.2PL0 Copyright (c) Steve Scherf et al.
# Submitted via: dBpowerAMP V12.0
#
DISCID=9b0b960e
DTITLE=Various Artist - Country Girls
DYEAR=1900
DGENRE=Country
TTITLE0=Kd Lang - I'm Down To My Last Cigarette
TTITLE1=Roseanne Cash - I Don't Want To Spoil The Party
TTITLE2=Tanya Tucker - Love Like You Used To
TTITLE3=Judds The - Love Is Alive
TTITLE4=Reba McEntire - What Am I Gonna Do About You
TTITLE5=Kathy Mattea - Come From The Heart
TTITLE6=Rita MacNeil - Flying On Your Own
TTITLE7=Sweethearts Of The Rodeo - Blue To The Bone
TTITLE8=Patty Loveless - Don't Toss Us Away
TTITLE9=Holly Dunn - Strangers Again
TTITLE10=Emmylou Harris - Beneath Still Waters
TTITLE11=Lori Yates - Promises Promises
TTITLE12=Loretta Lynn - She's Got You
TTITLE13=Forrester Sisters - Letter Home
EXTD=
EXTT0=
EXTT1=
EXTT2=
EXTT3=
EXTT4=
EXTT5=
EXTT6=
EXTT7=
EXTT8=
EXTT9=
EXTT10=
EXTT11=
EXTT12=
EXTT13=
PLAYORDER=
